<svg width="16" height="16" viewBox="0 0 16 16" fill="none" xmlns="http://www.w3.org/2000/svg">
<path d="M7.99994 5.99805C6.89537 5.99805 5.99994 6.89348 5.99994 7.99805C5.99994 9.10262 6.89537 9.99805 7.99994 9.99805C9.10451 9.99805 9.99994 9.10262 9.99994 7.99805C9.99994 6.89348 9.10451 5.99805 7.99994 5.99805ZM6.99994 7.99805C6.99994 7.44576 7.44765 6.99805 7.99994 6.99805C8.55222 6.99805 8.99994 7.44576 8.99994 7.99805C8.99994 8.55033 8.55222 8.99805 7.99994 8.99805C7.44765 8.99805 6.99994 8.55033 6.99994 7.99805ZM10.618 4.39638C10.233 4.4663 9.86392 4.21218 9.7937 3.82878L9.53397 2.413C9.50816 2.27232 9.39961 2.16106 9.25912 2.1313C8.84818 2.04426 8.42685 2 8 2C7.57289 2 7.1513 2.04432 6.74013 2.13146C6.5996 2.16124 6.49104 2.27257 6.46529 2.41331L6.20629 3.82885C6.1994 3.86648 6.18942 3.90356 6.17647 3.93965C6.04476 4.30663 5.6392 4.49782 5.27062 4.36668L3.91115 3.88267C3.77603 3.83457 3.62511 3.87235 3.52891 3.97837C2.96005 4.60533 2.52892 5.34513 2.2672 6.15107C2.22305 6.28704 2.26562 6.43609 2.37502 6.52858L3.47694 7.46011C3.50626 7.4849 3.53352 7.51204 3.55843 7.54125C3.81177 7.83832 3.77528 8.28363 3.47693 8.53588L2.37502 9.46739C2.26562 9.55988 2.22305 9.70894 2.2672 9.8449C2.52892 10.6508 2.96005 11.3906 3.52891 12.0176C3.62511 12.1236 3.77603 12.1614 3.91115 12.1133L5.27068 11.6293C5.30687 11.6164 5.3441 11.6065 5.38196 11.5996C5.76701 11.5297 6.13608 11.7838 6.2063 12.1672L6.46529 13.5827C6.49104 13.7234 6.5996 13.8347 6.74013 13.8645C7.1513 13.9517 7.57289 13.996 8 13.996C8.42685 13.996 8.84818 13.9517 9.25912 13.8647C9.39961 13.8349 9.50816 13.7237 9.53397 13.583L9.79368 12.1673C9.8006 12.1295 9.81058 12.0924 9.82353 12.0563C9.95524 11.6893 10.3608 11.4981 10.7294 11.6293L12.0888 12.1133C12.224 12.1614 12.3749 12.1236 12.4711 12.0176C13.04 11.3906 13.4711 10.6508 13.7328 9.8449C13.777 9.70894 13.7344 9.55988 13.625 9.46739L12.5231 8.53586C12.4937 8.51107 12.4665 8.48393 12.4416 8.45472C12.1882 8.15765 12.2247 7.71234 12.5231 7.46009L13.625 6.52858C13.7344 6.43609 13.777 6.28704 13.7328 6.15107C13.4711 5.34513 13.04 4.60533 12.4711 3.97837C12.3749 3.87235 12.224 3.83457 12.0888 3.88267L10.7293 4.3667C10.6931 4.37957 10.6559 4.38951 10.618 4.39638ZM3.99863 4.9753L4.93522 5.30875C5.82017 5.62363 6.79872 5.1662 7.11769 4.27745C7.14903 4.19012 7.17324 4.10014 7.18996 4.00883L7.36738 3.03918C7.5757 3.01317 7.78684 3 8 3C8.213 3 8.42397 3.01315 8.63214 3.03912L8.81011 4.00922C8.98053 4.93885 9.87266 5.54808 10.7967 5.38029C10.8877 5.36376 10.9775 5.33981 11.0647 5.30877L12.0014 4.9753C12.2564 5.30889 12.4684 5.67281 12.6319 6.05868L11.8774 6.69645C11.1566 7.30592 11.0675 8.38453 11.6807 9.1036C11.7408 9.17414 11.8067 9.2397 11.8775 9.29955L12.6319 9.93729C12.4684 10.3232 12.2564 10.6871 12.0014 11.0207L11.0646 10.6872C10.1797 10.3723 9.20128 10.8298 8.88231 11.7185C8.85096 11.8059 8.82677 11.8959 8.81004 11.9871L8.63214 12.9569C8.42397 12.9828 8.213 12.996 8 12.996C7.78684 12.996 7.5757 12.9828 7.36738 12.9568L7.18994 11.987C7.01965 11.0572 6.12743 10.4479 5.2033 10.6157C5.11227 10.6322 5.0225 10.6562 4.93528 10.6872L3.99863 11.0207C3.74357 10.6871 3.53161 10.3232 3.36814 9.93729L4.12257 9.29952C4.84343 8.69005 4.93254 7.61144 4.31933 6.89237C4.25917 6.82183 4.19332 6.75627 4.12254 6.69643L3.36814 6.05868C3.53161 5.67281 3.74357 5.30889 3.99863 4.9753Z" fill="#242424"/>
</svg>