<svg width="16" height="16" viewBox="0 0 16 16" fill="none" xmlns="http://www.w3.org/2000/svg">
<path d="M3.66504 8.3291L10.665 4.8291L11.3359 6.17074L4.33586 9.67074L3.66504 8.3291Z" fill="url(#paint0_linear_21153_223028)"/>
<path d="M3.66504 8.3291L10.665 4.8291L11.3359 6.17074L4.33586 9.67074L3.66504 8.3291Z" fill="url(#paint1_radial_21153_223028)"/>
<path d="M3.66504 8.3291L10.665 4.8291L11.3359 6.17074L4.33586 9.67074L3.66504 8.3291Z" fill="url(#paint2_radial_21153_223028)"/>
<path d="M11.165 13.1707L5.16504 10.1707L5.83586 8.8291L11.8359 11.8291L11.165 13.1707Z" fill="url(#paint3_linear_21153_223028)"/>
<path d="M11.165 13.1707L5.16504 10.1707L5.83586 8.8291L11.8359 11.8291L11.165 13.1707Z" fill="url(#paint4_radial_21153_223028)"/>
<path d="M11.165 13.1707L5.16504 10.1707L5.83586 8.8291L11.8359 11.8291L11.165 13.1707Z" fill="url(#paint5_radial_21153_223028)"/>
<circle cx="11" cy="5" r="3" fill="url(#paint6_linear_21153_223028)"/>
<circle cx="4.5" cy="9.5" r="2.5" fill="url(#paint7_linear_21153_223028)"/>
<circle cx="11" cy="12" r="2" fill="url(#paint8_linear_21153_223028)"/>
<defs>
<linearGradient id="paint0_linear_21153_223028" x1="3.66504" y1="4.8291" x2="4.83833" y2="10.1405" gradientUnits="userSpaceOnUse">
<stop stop-color="#B9C0C7"/>
<stop offset="1" stop-color="#70777D"/>
</linearGradient>
<radialGradient id="paint1_radial_21153_223028" cx="0" cy="0" r="1" gradientUnits="userSpaceOnUse" gradientTransform="translate(11.0005 5) rotate(146.31) scale(3.60555 3.78447)">
<stop offset="0.633413" stop-color="#70777D"/>
<stop offset="1" stop-color="#70777D" stop-opacity="0"/>
</radialGradient>
<radialGradient id="paint2_radial_21153_223028" cx="0" cy="0" r="1" gradientUnits="userSpaceOnUse" gradientTransform="translate(4.50049 9.5) rotate(-38.6598) scale(3.20156 3.36043)">
<stop offset="0.5625" stop-color="#70777D"/>
<stop offset="1" stop-color="#70777D" stop-opacity="0"/>
</radialGradient>
<linearGradient id="paint3_linear_21153_223028" x1="5.16504" y1="8.8291" x2="6.24676" y2="13.578" gradientUnits="userSpaceOnUse">
<stop stop-color="#B9C0C7"/>
<stop offset="1" stop-color="#70777D"/>
</linearGradient>
<radialGradient id="paint4_radial_21153_223028" cx="0" cy="0" r="1" gradientUnits="userSpaceOnUse" gradientTransform="translate(11.0005 12) rotate(-158.199) scale(2.69258 2.68616)">
<stop offset="0.4375" stop-color="#70777D"/>
<stop offset="1" stop-color="#70777D" stop-opacity="0"/>
</radialGradient>
<radialGradient id="paint5_radial_21153_223028" cx="0" cy="0" r="1" gradientUnits="userSpaceOnUse" gradientTransform="translate(4.50049 9.5) rotate(15.9454) scale(3.64006 3.96119)">
<stop offset="0.5625" stop-color="#70777D"/>
<stop offset="1" stop-color="#70777D" stop-opacity="0"/>
</radialGradient>
<linearGradient id="paint6_linear_21153_223028" x1="8.21429" y1="3.125" x2="12.355" y2="7.42705" gradientUnits="userSpaceOnUse">
<stop stop-color="#2BDABE"/>
<stop offset="1" stop-color="#22918B"/>
</linearGradient>
<linearGradient id="paint7_linear_21153_223028" x1="2.17857" y1="7.9375" x2="5.62918" y2="11.5225" gradientUnits="userSpaceOnUse">
<stop stop-color="#EC318F"/>
<stop offset="1" stop-color="#B91D6B"/>
</linearGradient>
<linearGradient id="paint8_linear_21153_223028" x1="9.625" y1="9.375" x2="12.25" y2="14.375" gradientUnits="userSpaceOnUse">
<stop stop-color="#FFCD0F"/>
<stop offset="1" stop-color="#FE8401"/>
</linearGradient>
</defs>
</svg>
